<?xml version="1.0" standalone="no"?>
<!DOCTYPE svg PUBLIC "-//W3C//DTD SVG 20010904//EN"
 "http://www.w3.org/TR/2001/REC-SVG-20010904/DTD/svg10.dtd">
<svg version="1.0" xmlns="http://www.w3.org/2000/svg" width="379.000000pt" height="379.000000pt" viewBox="0 0 379.000000 379.000000"
 preserveAspectRatio="xMidYMid meet">
<g transform="translate(0.000000,379.000000) scale(0.100000,-0.100000)" fill="#000000" stroke="none">
<path d="M650 3347 c-3 -3 -40 -7 -82 -10 -42 -3 -92 -13 -111 -22 -50 -23 -99 -80 -147 -170 -51 -96 -56 -103 -72 -87 -7 7 -43 12 -93 12 -91 0 -115 -13 -115 -63 0 -37 25 -57 73 -58 23 -1 53 -4 66 -8 23 -6 22 -8 -18 -26 -24 -10 -60 -39 -82 -63 -60 -69 -69 -113 -69 -342 0 -206 8 -255 41 -265 16 -5 19 -16 19 -71 0 -56 4 -68 25 -89 21 -22 33 -25 103 -25 69 0 81 3 100 23 18 19 22 35 22 85 l0 62 115 0 115 0 19 33 c45 75 96 137 137 167 84 60 139 78 277 89 164 14 996 14 1164 1 114 -10 136 -15 199 -45 94 -46 165 -122 229 -246 27 -52 62 -116 78 -144 l29 -49 -28 -23 c-16 -13 -31 -23 -34 -23 -3 0 -34 57 -70 126 -76 147 -118 206 -183 254 -67 51 -124 68 -267 81 -162 14 -877 14 -1045 0 -116 -10 -138 -15 -202 -46 -93 -46 -142 -101 -222 -251 -35 -66 -70 -129 -77 -141 l-14 -22 -36 21 c-33 19 -45 20 -150 15 -63 -4 -123 -11 -133 -17 -25 -13 -44 -72 -36 -110 12 -55 35 -67 148 -75 l102 -7 -55 -28 c-111 -56 -193 -152 -225 -261 -13 -48 -15 -108 -13 -407 l3 -350 24 -26 c14 -14 33 -26 43 -26 16 0 18 -10 18 -97 0 -165 37 -198 220 -191 158 6 179 27 188 186 l5 92 937 0 937 0 5 -92 c9 -159 30 -180 188 -186 183 -7 220 26 220 191 0 87 2 97 18 97 10 0 29 12 43 26 l24 26 3 350 c2 299 0 359 -13 407 -32 109 -113 204 -225 262 l-55 28 61 1 c54 0 67 -4 120 -39 32 -21 72 -52 88 -70 l30 -31 188 0 188 0 0 -81 c0 -76 2 -82 29 -110 28 -28 33 -29 126 -29 149 0 175 24 175 160 0 61 2 68 24 78 43 19 48 63 44 362 l-3 275 -29 60 c-35 70 -94 131 -162 165 l-49 24 30 7 c17 4 55 7 86 8 69 1 89 19 89 79 0 56 -22 69 -137 77 -76 6 -95 5 -114 -9 -13 -9 -28 -16 -34 -16 -5 0 -35 48 -65 106 -93 179 -156 234 -296 256 -110 18 -868 18 -978 0 -140 -22 -203 -77 -296 -256 -30 -58 -60 -106 -66 -106 -5 0 -19 6 -30 14 -19 14 -19 15 6 60 l24 45 -22 24 c-13 14 -42 33 -64 43 -39 17 -40 19 -17 25 13 4 43 7 66 8 49 1 73 21 73 60 0 47 -26 61 -116 61 -49 0 -85 -5 -92 -12 -16 -16 -21 -9 -72 87 -67 125 -128 179 -217 191 -53 7 -647 17 -653 11z m651 -76 c30 -8 59 -26 82 -49 32 -34 147 -232 147 -254 0 -6 -33 -6 -82 -2 -108 11 -958 11 -1065 0 -50 -4 -83 -4 -83 2 0 18 113 218 139 245 35 39 76 58 136 67 89 12 675 5 726 -9z m1574 -241 c247 -13 276 -20 341 -82 30 -28 56 -60 60 -71 4 -11 36 -74 71 -140 36 -65 63 -121 60 -123 -3 -3 -79 0 -169 7 -216 17 -1030 17 -1246 0 -90 -7 -166 -10 -169 -7 -3 2 24 58 60 123 35 66 67 128 71 139 10 34 99 111 148 129 78 29 463 41 773 25z m-1190 -254 c16 -12 8 -14 -71 -21 -113 -9 -134 -21 -134 -79 0 -61 18 -74 115 -81 43 -3 80 -7 82 -9 12 -11 -84 -46 -125 -46 -43 1 -45 2 -28 15 17 13 12 14 -45 9 -57 -6 -66 -4 -83 15 -18 20 -19 26 -8 67 7 24 12 58 12 74 0 51 42 68 164 69 72 1 108 -3 121 -13z m-1502 -25 c23 -6 80 -17 127 -26 95 -18 126 -39 136 -92 5 -25 2 -39 -12 -54 -16 -18 -26 -19 -128 -14 -184 10 -194 12 -212 47 -21 40 -14 116 12 135 21 16 23 16 77 4z m1868 -401 c155 -13 216 -35 273 -101 18 -22 77 -121 129 -221 l96 -180 -72 6 c-379 34 -1435 34 -1814 0 l-72 -6 96 180 c52 100 111 199 129 221 52 60 125 91 236 101 143 11 848 11 999 0z m1607 -16 c19 -13 22 -24 22 -87 0 -126 -21 -137 -272 -137 -159 0 -168 1 -182 21 -16 24 -12 65 10 110 17 35 60 53 169 73 50 9 110 20 135 25 69 13 93 12 118 -5z m-663 -284 c51 -12 65 -32 65 -97 0 -44 -5 -59 -25 -78 -30 -31 -91 -36 -80 -7 15 40 16 71 2 105 -18 43 -26 45 -162 55 l-100 7 30 18 c25 15 46 17 130 12 55 -3 118 -9 140 -15z m-2443 -558 c165 -32 202 -42 224 -63 33 -30 54 -78 54 -121 0 -73 -17 -77 -255 -67 -110 4 -212 8 -226 8 -14 1 -38 12 -53 26 -25 23 -26 29 -26 120 0 82 3 98 20 115 26 26 30 26 262 -18z m2298 18 c17 -17 20 -33 20 -115 0 -91 -1 -97 -26 -120 -16 -15 -40 -25 -58 -26 -17 0 -116 -4 -221 -8 -186 -8 -231 -4 -247 22 -12 19 -9 75 6 110 29 68 51 78 259 118 228 44 241 45 267 19z"/>
</g>
</svg>
